<svg xmlns="http://www.w3.org/2000/svg" width="512" height="512" viewBox="0 0 512 512">
  <defs>
    <style>
      .cls-1 {
        fill: #2ecee1;
        fill-rule: evenodd;
      }
    </style>
  </defs>
  <path class="cls-1" d="M68.31,83.737H197.046v41.218H153.587v82.09h36.926v40.46H153.587v95.63s14.133-3.225,42.986-18.179v39.387a22.417,22.417,0,0,1-2.18,1.126c-46.669,21.71-53.2,25.771-130.123,47.352v-40.4s0.939-.3,2.638-0.73c18.615-4.714,41.411-12.465,45.461-15.429V247.505H71.876v-40.46h40.493v-82.09H68.111ZM212,77.237H433.83V269.285H343.015v40.567H437.95V346.31H343.015v46.215H443.073v38.512H185.811V392.525H303.4V346.31H212V309.852h91.4V269.285H212m37.219-155.734H303.4v42.744H249.218m54.183,0H249.218m54.183,0H249.218m54.183,0H249.218m54.183,0H249.218m92.915-42.744h54.183v42.744H342.133m54.183,0H342.133m54.183,0H342.133m54.183,0H342.133m54.183,0H342.133m0.382,31.833h54.524v45.4H342.515m54.524,0H342.515m54.524,0H342.515m54.524,0H342.515m54.524,0H342.515m-93.925-45.4h54.524v45.4H248.59m54.524,0H248.59m54.524,0H248.59m54.524,0H248.59m54.524,0H248.59"/>
</svg>
